<?xml version="1.0" encoding="UTF-8"?>
<svg version="1.1" xmlns="http://www.w3.org/2000/svg" width="1600" height="1200">
<path d="M0 0 C0.747052 -0.0049649 1.494104 -0.00992981 2.26379395 -0.01504517 C4.72567684 -0.02960262 7.18749527 -0.03645849 9.64941406 -0.04199219 C11.36948649 -0.04774946 13.08955892 -0.05350712 14.80963135 -0.05926514 C18.41410621 -0.06975727 22.0185589 -0.07561144 25.62304688 -0.07910156 C30.22386327 -0.08457872 34.82438262 -0.10859763 39.42510605 -0.13707352 C42.97862584 -0.15577145 46.53207514 -0.16090932 50.08563995 -0.16243744 C51.78078076 -0.16544899 53.47592076 -0.17342647 55.17101288 -0.18662262 C71.81817082 -0.3069568 71.81817082 -0.3069568 79.41503906 3.16113281 C82.84725121 6.59334496 81.86771597 11.38072402 81.91503906 16.03613281 C81.95628906 17.04289063 81.99753906 18.04964844 82.04003906 19.08691406 C82.06990386 21.89793792 81.99865357 24.41062146 81.41503906 27.16113281 C76.74472657 31.90178134 71.22953043 32.05632049 64.82449341 32.29484558 C63.55258148 32.29865738 62.28066956 32.30246918 60.97021484 32.30639648 C60.26188507 32.3097551 59.5535553 32.31311371 58.82376099 32.3165741 C56.50260624 32.32600457 54.18152423 32.32802312 51.86035156 32.32910156 C50.23281831 32.33231937 48.60528535 32.33568383 46.97775269 32.33918762 C43.57354055 32.34515894 40.16935372 32.34702955 36.76513672 32.34643555 C32.42227101 32.34633398 28.07956898 32.35998972 23.73674202 32.37720776 C20.37709826 32.388374 17.01749351 32.39035335 13.6578331 32.38982582 C12.0576 32.39099883 10.45736567 32.39538211 8.85715103 32.40315819 C-10.11857127 32.48674762 -10.11857127 32.48674762 -17.10986328 28.84643555 C-20.13069311 25.39512997 -19.23788877 20.58316724 -19.20996094 16.22363281 C-19.2421875 15.22138672 -19.27441406 14.21914063 -19.30761719 13.18652344 C-19.31136052 10.38089648 -19.21593593 7.89554795 -18.58496094 5.16113281 C-13.22628025 -0.00561805 -7.09467497 0.0113746 0 0 Z " fill="#B97A58" transform="translate(482.5849609375,728.8388671875)"/>
<path d="M0 0 C1.8046875 0.10546875 1.8046875 0.10546875 4 1 C6.0703125 3.36328125 6.0703125 3.36328125 8.125 6.3125 C8.80820312 7.27800781 9.49140625 8.24351562 10.1953125 9.23828125 C12 12 12 12 14 16 C14.33 11.05 14.66 6.1 15 1 C16.32 0.67 17.64 0.34 19 0 C20.68516954 1.68516954 20.13008019 3.78767788 20.1328125 6.09375 C20.13474609 7.63869141 20.13474609 7.63869141 20.13671875 9.21484375 C20.13285156 10.29894531 20.12898437 11.38304687 20.125 12.5 C20.13080078 14.12615234 20.13080078 14.12615234 20.13671875 15.78515625 C20.13542969 16.81511719 20.13414062 17.84507812 20.1328125 18.90625 C20.13168457 19.85822266 20.13055664 20.81019531 20.12939453 21.79101562 C20 24 20 24 19 25 C16.73828125 25.5 16.73828125 25.5 14 25 C12.12571214 22.6638447 10.67361142 20.56174947 9.1875 18 C8.78080078 17.33226562 8.37410156 16.66453125 7.95507812 15.9765625 C6.95383043 14.32744865 5.97474159 12.6649181 5 11 C4.67 15.29 4.34 19.58 4 24 C2.35 24.33 0.7 24.66 -1 25 C-1.02886984 21.02084841 -1.04675406 17.04172347 -1.0625 13.0625 C-1.07087891 11.92619141 -1.07925781 10.78988281 -1.08789062 9.61914062 C-1.09111328 8.53955078 -1.09433594 7.45996094 -1.09765625 6.34765625 C-1.10289307 5.34742432 -1.10812988 4.34719238 -1.11352539 3.31665039 C-1 1 -1 1 0 0 Z " fill="#F9F4F1" transform="translate(505,732)"/>
</svg>
