<svg width="800" height="600" viewBox="0 0 800 600" fill="none" xmlns="http://www.w3.org/2000/svg">
<rect x="596" y="405" width="15" height="15" rx="5" fill="#854D0E"/>
<path d="M597.957 419.5H604.52C607.605 419.5 609.48 417.82 609.48 415.516C609.48 413.494 608.006 412.195 606.219 412.137V412C607.83 411.668 608.924 410.477 608.934 408.914C608.924 406.756 607.234 405.359 604.012 405.359H597.957V419.5ZM601.668 416.512V413.426H603.621C604.812 413.426 605.555 414.021 605.555 415.047C605.555 416.004 604.9 416.521 603.562 416.512H601.668ZM601.668 411.102V408.289H603.387C604.393 408.289 605.105 408.797 605.105 409.695C605.105 410.594 604.373 411.102 603.328 411.102H601.668Z" fill="white"/>
</svg>
