<svg width="800" height="600" viewBox="0 0 800 600" fill="none" xmlns="http://www.w3.org/2000/svg">
<rect x="482" y="364" width="111" height="15" rx="5" fill="#3F6212"/>
<path d="M540.273 369.613H544.043C543.73 366.137 541.182 364.164 537.656 364.164C533.857 364.164 530.869 366.723 530.859 371.43C530.869 376.117 533.779 378.695 537.656 378.695C541.729 378.695 543.838 375.883 544.043 373.461L540.273 373.422C540.068 374.682 539.17 375.443 537.734 375.453C535.82 375.443 534.688 374.086 534.688 371.43C534.688 368.9 535.791 367.406 537.754 367.406C539.258 367.406 540.146 368.285 540.273 369.613Z" fill="white"/>
</svg>
