<svg width="800" height="600" viewBox="0 0 800 600" fill="none" xmlns="http://www.w3.org/2000/svg">
<rect x="221" y="373" width="22" height="15" rx="5" fill="#1B9999"/>
<path d="M234.656 378.008C234.402 376.992 233.562 376.406 232.312 376.406C230.34 376.406 229.188 377.891 229.188 380.41C229.188 382.949 230.262 384.453 232.293 384.453C234.061 384.453 234.959 383.623 234.988 382.305H232.371V379.648H238.582V381.582C238.582 385.43 235.945 387.695 232.254 387.695C228.152 387.695 225.359 384.922 225.359 380.449C225.359 375.801 228.426 373.164 232.234 373.164C235.555 373.164 238.113 375.176 238.426 378.008H234.656Z" fill="white"/>
</svg>
